<svg xmlns="http://www.w3.org/2000/svg" width="39.3" height="39.302" viewBox="0 0 39.3 39.302">
  <g id="그룹_1133" data-name="그룹 1133" transform="translate(0.65 0.65)">
    <g id="그룹_1044" data-name="그룹 1044">
      <g id="그룹_1043" data-name="그룹 1043">
        <g id="그룹_1039" data-name="그룹 1039">
          <path id="패스_619" data-name="패스 619" d="M347.515,433.055a19,19,0,0,1,19-19l-9.473,0a19,19,0,0,0,0,38h9.473A19,19,0,0,1,347.515,433.055Z" transform="translate(-338.042 -414.054)" fill="none" stroke="#fff" stroke-linejoin="round" stroke-width="1.3"/>
          <g id="그룹_1038" data-name="그룹 1038" transform="translate(9.473 0.002)">
            <path id="패스_620" data-name="패스 620" d="M344.1,433.054a9.442,9.442,0,0,1,9.443-9.442h10.809l8.275-9.557H363.1A19,19,0,0,0,344.1,433.054Z" transform="translate(-344.099 -414.055)" fill="none" stroke="#fff" stroke-linejoin="round" stroke-width="1.3"/>
            <path id="패스_621" data-name="패스 621" d="M344.1,433.054a9.442,9.442,0,0,1,9.443-9.442h10.809l8.275-9.557H363.1A19,19,0,0,0,344.1,433.054Z" transform="translate(-344.099 -414.055)" fill="none" stroke="#fff" stroke-linejoin="round" stroke-width="1.3"/>
          </g>
        </g>
        <g id="그룹_1042" data-name="그룹 1042" transform="translate(9.473 16.965)">
          <g id="그룹_1040" data-name="그룹 1040" transform="translate(0 2.036)">
            <path id="패스_622" data-name="패스 622" d="M367.5,435.709c-.02-.022-.045-.041-.067-.063H353.542A9.443,9.443,0,0,1,344.1,426.2a19,19,0,0,0,19,19h9.526a19.007,19.007,0,0,0-5.128-9.495Z" transform="translate(-344.099 -426.203)" fill="none" stroke="#fff" stroke-linejoin="round" stroke-width="1.3"/>
            <path id="패스_623" data-name="패스 623" d="M367.5,435.709c-.02-.022-.045-.041-.067-.063H353.542A9.443,9.443,0,0,1,344.1,426.2a19,19,0,0,0,19,19h9.526a19.007,19.007,0,0,0-5.128-9.495Z" transform="translate(-344.099 -426.203)" fill="none" stroke="#fff" stroke-linejoin="round" stroke-width="1.3"/>
          </g>
          <g id="그룹_1041" data-name="그룹 1041" transform="translate(8.983)">
            <path id="패스_624" data-name="패스 624" d="M354.895,424.9l-5.052,5.893h.92a18.92,18.92,0,0,1,13.427,5.587c.022.022.047.041.067.063h0a19.007,19.007,0,0,1,5.128,9.495v-9.495h0V424.926Z" transform="translate(-349.843 -424.901)" fill="none" stroke="#fff" stroke-linejoin="round" stroke-width="1.3"/>
            <path id="패스_625" data-name="패스 625" d="M354.895,424.9l-5.052,5.893h.92a18.92,18.92,0,0,1,13.427,5.587c.022.022.047.041.067.063h0a19.007,19.007,0,0,1,5.128,9.495v-9.495h0V424.926Z" transform="translate(-349.843 -424.901)" fill="none" stroke="#fff" stroke-linejoin="round" stroke-width="1.3"/>
          </g>
        </g>
      </g>
    </g>
    <g id="그룹_1051" data-name="그룹 1051">
      <g id="그룹_1050" data-name="그룹 1050">
        <g id="그룹_1046" data-name="그룹 1046">
          <path id="패스_626" data-name="패스 626" d="M347.515,433.055a19,19,0,0,1,19-19l-9.473,0a19,19,0,0,0,0,38h9.473A19,19,0,0,1,347.515,433.055Z" transform="translate(-338.042 -414.054)" fill="#0091db"/>
          <g id="그룹_1045" data-name="그룹 1045" transform="translate(9.473 0.002)">
            <path id="패스_627" data-name="패스 627" d="M344.1,433.054a9.442,9.442,0,0,1,9.443-9.442h10.809l8.275-9.557H363.1A19,19,0,0,0,344.1,433.054Z" transform="translate(-344.099 -414.055)" fill="#004ea2"/>
          </g>
        </g>
        <g id="그룹_1049" data-name="그룹 1049" transform="translate(9.473 16.965)">
          <g id="그룹_1047" data-name="그룹 1047" transform="translate(0 2.036)">
            <path id="패스_628" data-name="패스 628" d="M367.5,435.709c-.02-.022-.045-.041-.067-.063H353.542A9.443,9.443,0,0,1,344.1,426.2a19,19,0,0,0,19,19h9.526a19.007,19.007,0,0,0-5.128-9.495Z" transform="translate(-344.099 -426.203)" fill="#004ea2"/>
          </g>
          <g id="그룹_1048" data-name="그룹 1048" transform="translate(8.983)">
            <path id="패스_629" data-name="패스 629" d="M354.895,424.9l-5.052,5.893h.92a18.92,18.92,0,0,1,13.427,5.587c.022.022.047.041.067.063h0a19.007,19.007,0,0,1,5.128,9.495v-9.495h0V424.926Z" transform="translate(-349.843 -424.901)" fill="#82bf25"/>
          </g>
        </g>
      </g>
    </g>
  </g>
</svg>
